<?xml version="1.0" encoding="UTF-8"?>
<svg id="Calque_2" data-name="Calque 2" xmlns="http://www.w3.org/2000/svg" viewBox="0 0 826.13 301.19">
  <defs>
    <style>
      .cls-1 {
        fill: #cf3339;
      }

      .cls-2 {
        fill: #fff;
      }

      .cls-3 {
        fill: #192a67;
      }

      .cls-4 {
        fill: #f9b11b;
      }

      .cls-5 {
        fill: #21427c;
      }
    </style>
  </defs>
  <g id="Calque_1-2" data-name="Calque 1-2">
    <g>
      <rect class="cls-2" x="549.96" y="267.42" width="23.46" height="10.75"/>
      <path class="cls-1" d="M592.95,278.17h-19.54v-10.75h19.54c2.17,0,3.93,1.76,3.93,3.93h0v2.9c0,2.17-1.76,3.93-3.93,3.93"/>
      <path class="cls-3" d="M530.42,267.42h19.54v10.75h-19.54c-2.17,0-3.93-1.76-3.93-3.93v-2.88c0-2.17,1.76-3.93,3.93-3.93"/>
      <path class="cls-5" d="M357.39,145.42v-19.31c0-16.53-12.2-22.39-22.65-22.39-7.48,0-13.18,3.14-17.42,9.59v-37.57h-20.08v2.2l2.93.14c4.64.26,5.61.31,5.61,17.15v50.19c0,16.85-1,16.9-5.61,17.15l-2.93.15v2.2h28.64v-2.2l-2.93-.15c-4.65-.25-5.62-.3-5.62-17.15v-28.29c2.52-4.59,7.22-10,15.32-10,8.52,0,13.21,6.74,13.21,19v19.31c0,16.85-1,16.9-5.6,17.15l-2.94.15v2.2h28.62v-2.2l-2.93-.15c-4.64-.25-5.61-.3-5.61-17.15"/>
      <path class="cls-5" d="M399.64,103.73c-13.62,0-28.17,8.29-28.17,31.59-.13,7.89,2.59,15.57,7.65,21.62,5.49,6.34,13.27,9.7,22.49,9.7,13.52,0,22-6,24.62-17.46l.06-.32-2.41-.5-.08.31c-2.29,9.69-8.86,14.6-19.53,14.6-13.13,0-19.51-9.48-19.51-29v-2.31h41.64v-.33c0-18-9.49-27.9-26.72-27.9M413.42,129.73h-28.7c.15-12.33,2.11-23.67,14.92-23.67s13.7,13.41,13.74,23.67"/>
      <path class="cls-5" d="M478.6,149.59l-11.18-16.9,7.36-10.45c7.39-10.25,11.77-14.07,16.73-14.59l1.46-.16v-2.13h-21v2.19l2.14.15c1.05-.04,2.02.53,2.5,1.46,1.15,2.39-.6,7.39-4.45,12.75l-6.17,8.82-7.11-10.83c-4-6-5.38-9.28-4.57-10.9.42-.82,1.49-1.26,3.28-1.35l2.66-.14v-2.15h-28.48v2.17l1.2.17c4.78.64,7.39,3.08,14,13l10.79,16.24-7.89,11c-7.67,10.64-11.71,14.21-16.6,14.71l-1.46.17v2.18h21v-2.19l-2-.16c-1.17.04-2.26-.62-2.78-1.67-1.14-2.47.57-7.32,4.46-12.66l6.69-9.22,7.45,11.26c3.58,5.34,5,9.29,4.15,11.08-.46.77-1.3,1.21-2.19,1.16l-2.67.15v2.2h28.49v-2.18l-1.46-.17c-4.71-.53-8.19-3.69-14.35-13"/>
      <path class="cls-5" d="M549.46,145.42v-20.76c0-14.47-13-20.94-25.8-20.94s-20.69,4.93-20.69,12.28c0,4,3,6.88,7.28,6.88,3.77.04,6.86-2.97,6.9-6.74v-.14c-.03-1.83-.61-3.62-1.66-5.12-.45-.58-.74-1.27-.84-2,0-1.86,3.16-2.83,9.14-2.83,9.24,0,14.13,4.74,14.13,13.73v15.81c-4.86-2.13-10.13-3.15-15.44-3-16.17,0-24.37,5.59-24.37,16.61,0,10.41,8.58,17.14,21.87,17.14,7.93,0,13.89-3.19,18.2-9.72v8.27h19.82v-2.2l-2.93-.15c-4.64-.24-5.61-.3-5.61-17.15M537.88,138.01v15.09c-2.88,5.81-8.78,9.87-14.39,9.87-8.33,0-12.56-4.4-12.56-13.08,0-9.9,4.54-14.92,13.47-14.92,4.66,0,9.27,1.01,13.48,3"/>
      <path class="cls-5" d="M575.24,112.35c-6.8,5.32-10.38,13.4-10.38,23.37,0,18.14,13.36,30.79,32.5,30.79,3.75,0,7.49-.49,11.11-1.47v.63c0,16.43-2.61,24.25-17.42,24.25-8.29,0-11.37-2.46-11.37-4,.06-1.01.41-1.97,1-2.79.92-1.4,1.41-3.03,1.4-4.7-.04-3.87-3.2-6.97-7.07-6.93s-6.97,3.2-6.93,7.07c0,6.59,8.81,13.72,23,13.72,19.22,0,29-9,29-26.6v-40.89c0-16.84,1-16.9,5.6-17.15l2.94-.14v-2.15h-30.61c-8.9,0-17,2.49-22.77,7M597.88,107.64h10.59v54.87c-3.6,1.08-7.35,1.63-11.11,1.64-12.69,0-19.13-9.57-19.13-28.45,0-12.94,5.15-28.06,19.65-28.06"/>
      <path class="cls-5" d="M663.17,103.73c-19.7,0-30,15.76-30,31.32-.13,8.05,2.67,15.87,7.88,22,5.53,6.3,13.19,9.63,22.13,9.63,19.79,0,30.14-15.83,30.14-31.45s-10.35-31.46-30.14-31.46M663.18,164.33c-11.35,0-16.63-9.25-16.63-29.1s5.13-29.11,16.63-29.11,16.62,9.24,16.62,29.24-5.13,29-16.63,29"/>
      <path class="cls-5" d="M759.66,145.42v-19.31c0-7.17-2.49-13-7.18-16.93-4.19-3.49-9.91-5.33-16.53-5.33-10.22,0-15.35,5.32-18.33,9.75v-8.25h-19.82v2.19l2.93.15c4.64.25,5.61.31,5.61,17.15v20.63c0,16.85-1,16.9-5.61,17.15l-2.93.15v2.2h28.62v-2.2l-2.93-.15c-4.64-.25-5.61-.3-5.61-17.15v-28.34c3.67-6.56,9-9.88,16-9.88,9.2,0,14.26,6.7,14.26,18.86v19.31c0,16.85-1,16.9-5.6,17.15l-2.93.15v2.2h28.61v-2.2l-2.92-.15c-4.65-.25-5.61-.3-5.61-17.15"/>
      <path class="cls-5" d="M826.13,131.95v-.33c0-18-9.49-27.9-26.72-27.9-13.62,0-28.18,8.29-28.18,31.59-.13,7.89,2.58,15.57,7.65,21.62,5.49,6.34,13.27,9.7,22.49,9.7,13.51,0,22-6,24.61-17.46l.07-.32-2.46-.53-.07.31c-2.29,9.69-8.86,14.6-19.53,14.6-13.13,0-19.51-9.48-19.51-29v-2.28h41.65ZM813.13,129.73h-28.64c.14-12.33,2.11-23.67,14.92-23.67s13.7,13.41,13.74,23.67"/>
      <path class="cls-5" d="M296.88,208.01h16.7v3.08h-13.19v7.7h11.28v3.05h-11.28v8.41h13.3v3.1h-16.81v-25.34h0ZM306.99,199.86h3.69l-4.4,5.85h-2.55l3.26-5.85h0Z"/>
      <path class="cls-5" d="M317.59,226.53v-3.83c0-4.86,3.33-7.62,7.69-7.62,4.05,0,7.34,2.3,7.34,6.49v.42h-3.12v-.53c0-2.13-1.63-3.69-4.18-3.69s-4.44,1.67-4.44,4.59v4.25c-.21,2.25,1.44,4.26,3.69,4.47.26.02.52.02.78,0,2.55,0,4.11-1.52,4.11-3.69v-.39h3.12v.36c0,4.15-3.19,6.49-7.23,6.49-4.39-.05-7.76-2.64-7.76-7.32h0Z"/>
      <path class="cls-5" d="M336.49,226.81v-4.46c0-4.79,3.65-7.3,7.66-7.3,4.39,0,7.76,2.69,7.76,7.23v4.15c0,4.75-3.61,7.34-7.66,7.34-4.37.02-7.76-2.42-7.76-6.96h0ZM348.65,226.67v-4.64c0-2.52-1.63-4.22-4.5-4.22-2.56,0-4.44,1.45-4.44,4.36v4.61c0,2.59,1.71,4.29,4.54,4.29,2.63,0,4.4-1.38,4.4-4.4Z"/>
      <path class="cls-5" d="M357.12,228.79v-20.75h3.23v20.82c-.09,1,.65,1.87,1.64,1.96.14,0,.28,0,.42,0,.67,0,1.34-.05,2-.14v2.45c-1,.27-2.02.41-3.05.42-3.74,0-4.24-2.83-4.24-4.75h0Z"/>
      <path class="cls-5" d="M367.94,226.5v-3.69c0-5,3.51-7.73,7.87-7.73,3.94,0,7.31,2.34,7.31,7v3.05h-11.85v1.56c0,2.69,1.95,4.36,4.79,4.36,1.73-.04,3.33-.89,4.33-2.3l2.44,1.45c-1.48,2.38-4.15,3.75-6.95,3.58-4.39.02-7.94-2.35-7.94-7.28h0ZM379.94,222.9v-.85c.16-2.2-1.49-4.12-3.69-4.29-.18,0-.35,0-.53,0-2.36-.09-4.35,1.75-4.44,4.11v1.03h8.66Z"/>
      <path class="cls-5" d="M396.59,227.62l3.16-1.2c1,2.73,3.47,4.29,6.7,4.29s5.67-1.42,5.67-4.15c0-2.41-1.63-3.44-3.75-4.08l-4.61-1.24c-3.48-1-5.75-2.7-5.75-6.6,0-4.36,3.65-7.06,8.33-7.06,4,0,7.49,1.56,8.73,5l-3,1.21c-1.06-2.16-3.05-3.26-5.78-3.26-2.41,0-4.86,1.17-4.86,3.83,0,1.91,1.39,3.12,4.05,3.86l4.64,1.28c3,.78,5.43,2.59,5.43,6.77,0,4.44-3.76,7.49-9.22,7.49-4.63,0-8.53-2.06-9.74-6.14h0Z"/>
      <path class="cls-5" d="M420.35,227.48v-12.06h3.23v11c0,3,1.42,4.43,3.72,4.43,2.59,0,4.58-1.84,4.58-5.1v-10.33h3.19v17.93h-3.09v-2.8h-.1c-1.15,2-3.29,3.22-5.6,3.19-3.87-.02-5.93-2.57-5.93-6.26h0Z"/>
      <path class="cls-5" d="M441.02,215.42h3.09v2.63h.07c1.18-1.86,3.23-2.99,5.43-3,3.86,0,6.7,2.41,6.7,6.6v5.1c0,4.83-3.33,7.06-7,7.06-2.09.05-4.03-1.09-5-2.94h-.1v9.36h-3.2v-24.81h.01ZM453.02,226.95v-5.25c0-2.31-1.74-3.9-4.33-3.9-2.51.02-4.53,2.08-4.51,4.59v4.13c-.08,2.43,1.83,4.46,4.25,4.54h.32c2.2.16,4.12-1.49,4.28-3.7.01-.14.01-.27,0-.41h-.03.02Z"/>
      <path class="cls-5" d="M460.7,226.5v-3.69c0-5,3.52-7.73,7.88-7.73,3.93,0,7.3,2.34,7.3,7v3.05h-11.84v1.56c0,2.69,1.95,4.36,4.79,4.36,1.72-.04,3.33-.89,4.32-2.3l2.45,1.45c-1.49,2.39-4.19,3.77-7,3.58-4.35.02-7.9-2.35-7.9-7.28h0ZM472.7,222.9v-.85c.16-2.2-1.49-4.12-3.69-4.29-.18,0-.35,0-.53,0-2.36-.09-4.34,1.74-4.44,4.1v1.04h8.66ZM470.57,206.67h3.69l-4.4,5.85h-2.55l3.26-5.85h0Z"/>
      <path class="cls-5" d="M480.88,215.42h3.12v3.37h.07c1.24-2.28,3.64-3.7,6.24-3.69.45,0,.9.04,1.35.11v3c-.54-.09-1.08-.13-1.63-.11-3.34,0-5.89,2-5.93,5.68v9.57h-3.22v-17.93h0Z"/>
      <path class="cls-5" d="M495.88,208.09h3.19v4.11h-3.19v-4.11ZM495.88,215.42h3.19v17.93h-3.19v-17.93h0Z"/>
      <path class="cls-5" d="M504.25,226.5v-3.69c0-5,3.51-7.73,7.87-7.73,3.94,0,7.31,2.34,7.31,7v3.05h-11.85v1.56c0,2.69,1.95,4.36,4.79,4.36,1.73-.04,3.33-.89,4.33-2.3l2.44,1.45c-1.49,2.4-4.18,3.77-7,3.58-4.34.02-7.89-2.35-7.89-7.28ZM516.25,222.9v-.85c.16-2.2-1.49-4.12-3.69-4.29-.18,0-.35,0-.53,0-2.36-.1-4.36,1.73-4.46,4.09v1.1l8.67-.05h.01Z"/>
      <path class="cls-5" d="M524.43,227.48v-12.06h3.22v11c0,3,1.42,4.43,3.73,4.43,2.58,0,4.57-1.84,4.57-5.1v-10.33h3.19v17.93h-3.08v-2.8h-.07c-1.15,2-3.3,3.22-5.61,3.19-3.9-.02-5.95-2.57-5.95-6.26h0Z"/>
      <path class="cls-5" d="M544.88,215.42h3.12v3.37h.07c1.25-2.28,3.64-3.69,6.24-3.69.45,0,.9.04,1.35.11v3c-.54-.09-1.08-.13-1.63-.11-3.33,0-5.89,2-5.92,5.68v9.57h-3.23v-17.93h0Z"/>
      <path class="cls-5" d="M559,226.5v-3.69c0-5,3.51-7.73,7.87-7.73,3.94,0,7.31,2.34,7.31,7v3.05h-11.85v1.56c0,2.69,1.95,4.36,4.79,4.36,1.73-.04,3.33-.89,4.33-2.3l2.44,1.45c-1.49,2.4-4.18,3.77-7,3.58-4.34.02-7.89-2.35-7.89-7.28ZM571,222.9v-.85c.16-2.2-1.49-4.12-3.69-4.29-.18,0-.35,0-.53,0-2.36-.09-4.35,1.75-4.44,4.11v1.03h8.66Z"/>
      <path class="cls-5" d="M588.25,227.17v-5.11c0-4.82,3.34-7,7-7,2.08-.05,4.02,1.07,5,2.91h.11v-9.9h3.19v25.29h-3.12v-2.77h0c-1.14,1.93-3.18,3.14-5.42,3.23-3.92-.02-6.76-2.46-6.76-6.65ZM600.35,226.25v-4c.07-2.43-1.84-4.47-4.27-4.54h-.34c-2.2-.14-4.11,1.53-4.25,3.73,0,.13-.01.25,0,.38v5.25c0,2.3,1.74,3.9,4.36,3.9s4.52-2.03,4.51-4.53v-.19h0Z"/>
      <path class="cls-5" d="M610.88,212.36h-1.2v-4.47h3.47v4.32l-1.42,4.54h-1.74l.89-4.39Z"/>
      <path class="cls-5" d="M619.39,208.04h3.49v25.31h-3.47l-.02-25.31Z"/>
      <path class="cls-5" d="M629.17,215.42h3.09v2.8h.07c1.16-2.01,3.32-3.23,5.64-3.19,3.86,0,5.92,2.52,5.92,6.21v12.11h-3.23v-11.08c0-3-1.38-4.44-3.68-4.44-2.59,0-4.61,1.85-4.61,5.11v10.41h-3.2v-17.93h0Z"/>
      <path class="cls-5" d="M651.09,217.95h-3v-2.52h3v-2.8c0-3.33,1.74-5.14,5-5.14.67,0,1.34.07,2,.21v2.77c-.56-.11-1.14-.16-1.71-.15-1.05-.11-1.99.65-2.1,1.7-.02.16-.01.31,0,.47v2.94h3.72v2.52h-3.73v15.41h-3.19v-15.41h.01Z"/>
      <path class="cls-5" d="M661.34,226.81v-4.46c0-4.79,3.65-7.3,7.66-7.3,4.39,0,7.76,2.69,7.76,7.23v4.15c0,4.75-3.61,7.34-7.66,7.34-4.36.02-7.76-2.42-7.76-6.96h0ZM673.5,226.67v-4.64c0-2.52-1.63-4.22-4.5-4.22-2.56,0-4.44,1.45-4.44,4.36v4.61c0,2.59,1.71,4.29,4.54,4.29,2.59,0,4.4-1.38,4.4-4.4Z"/>
      <path class="cls-5" d="M681.8,215.42h3.08v3.37h.07c1.24-2.28,3.64-3.7,6.24-3.69.45,0,.9.04,1.35.11v3c-.54-.09-1.08-.13-1.63-.11-3.34,0-5.89,2-5.93,5.68v9.57h-3.22l.04-17.93h0Z"/>
      <path class="cls-5" d="M696.69,215.42h3.09v2.77h.1c1.16-2.01,3.32-3.22,5.64-3.16,2.21-.11,4.25,1.2,5.07,3.26h0c1.28-2.08,3.56-3.32,6-3.26,3.4,0,5.92,2.09,5.92,5.89v12.43h-3.23v-11.08c0-2.84-1.2-4.44-3.69-4.44s-4.36,2.1-4.4,4.83v10.69h-3.19v-11.1c0-2.66-1.1-4.4-3.69-4.4-2.5.05-4.48,2.11-4.44,4.6v10.9h-3.19v-17.93h.01Z"/>
      <path class="cls-5" d="M727.4,228.45c0-3.76,3.4-5.46,6.63-5.46h5v-2.2c0-2.34-1.56-3.23-4-3.23-2,0-3.9.71-3.9,2.45v.6h-2.91v-.5c0-3.76,3.55-5.07,6.88-5.07,3.76,0,7.13,1.28,7.13,5.43v8.69c.01,1.4.11,2.79.29,4.18h-3.16c-.07-.46-.14-1.84-.18-2.23h-.07c-1.52,2.2-3.4,2.62-5.64,2.62-3.48,0-6.07-1.95-6.07-5.28h0ZM739.03,226.78v-1.42h-4.5c-2.13,0-4,.6-4,2.91,0,1.95,1.64,2.91,3.76,2.91,3.53,0,4.74-1.88,4.74-4.4h0Z"/>
      <path class="cls-5" d="M749.07,229.43v-11.42h-2.88v-2.59h2.88v-5.53h3.19v5.53h4.62v2.59h-4.61v10.6c0,1.64.85,2.13,2.23,2.13.83,0,1.67-.09,2.48-.28v2.76c-1.06.28-2.16.42-3.26.43-2.49,0-4.65-1.13-4.65-4.22h0Z"/>
      <path class="cls-5" d="M761.3,208.09h3.19v4.11h-3.19v-4.11ZM761.3,215.42h3.19v17.93h-3.19v-17.93h0Z"/>
      <path class="cls-5" d="M781.88,230.67h-.08c-1.15,1.89-3.18,3.07-5.39,3.12-3.86,0-6.7-2.45-6.7-6.63v-5.11c0-4.82,3.34-7,7-7,2.08-.03,4,1.09,5,2.91h.07v-2.61h3.2v24.82h-3.1v-9.5h0ZM781.8,226.25v-4c.07-2.43-1.84-4.47-4.27-4.54h-.34c-2.2-.14-4.1,1.54-4.24,3.74v5.62c0,2.3,1.74,3.9,4.36,3.9,2.5,0,4.51-2.05,4.49-4.55v-.17h.01,0Z"/>
      <path class="cls-5" d="M790.88,227.48v-12.06h3.23v11c0,3,1.42,4.43,3.72,4.43,2.59,0,4.58-1.84,4.58-5.1v-10.33h3.19v17.93h-3.09v-2.8h-.07c-1.15,2-3.29,3.22-5.6,3.19-3.91-.02-5.96-2.57-5.96-6.26h0Z"/>
      <path class="cls-5" d="M810.69,226.5v-3.69c0-5,3.52-7.73,7.88-7.73,3.93,0,7.3,2.34,7.3,7v3.05h-11.84v1.56c0,2.69,2,4.36,4.79,4.36,1.72-.04,3.33-.89,4.32-2.3l2.45,1.45c-1.49,2.39-4.19,3.77-7,3.58-4.35.02-7.9-2.35-7.9-7.28h0ZM822.69,222.9v-.85c.16-2.2-1.49-4.12-3.69-4.29-.18,0-.35,0-.53,0-2.36-.09-4.34,1.74-4.44,4.1v1.04h8.66Z"/>
      <path class="cls-4" d="M265.12,126.74v-43.45c0-5.71-3.06-10.98-8-13.83L140.55,2.14c-4.95-2.86-11.05-2.86-16,0l-26.19,15.14v200.07c-.18,4.98,1.73,9.81,5.27,13.32,3.52,3.46,8.04,5.19,13.56,5.18H28.35c5.53,0,10.05-1.73,13.55-5.18,3.54-3.51,5.46-8.34,5.28-13.32V46.84l-39.18,22.62c-4.94,2.86-8,8.13-8,13.83v134.62c0,5.71,3.06,10.98,8,13.83l116.59,67.31c4.95,2.86,11.05,2.86,16,0l116.59-67.31c4.94-2.85,7.99-8.12,8-13.83v-25.16c-19.9,21.86-47.97,38.61-81.72,42.61-.94.15-1.9.23-2.85.26-26.27,1.84-48.67-12.57-48.67-57.13v-64.23c0-7.29-1.13-12.7-3.38-16.25-1.89-3.25-4.93-5.67-8.53-6.76-3.43-1-6-1.71-10.25-.71-3.9.91-5.49,2-8.7,3.95,8.29-5.91,15.68-10.37,25.58-12.73,9.9-2.36,19-2.68,27.42-1,8.14,1.58,15.48,5.91,20.8,12.27,5.48,6.43,8.22,15.87,8.23,28.32v58.43c0,27,21.93,41.41,44.23,37.86,19.84-14.09,36.09-47.95,37.78-90.9h0Z"/>
      <path class="cls-5" d="M180.61,235.64h-.08l.92-.08,2.12-.25c.81-.11,1.79-.26,2.92-.44,14.3-2.78,27.88-8.42,39.94-16.59l.92-.65c-22.3,3.55-44.23-10.87-44.23-37.86v-58.42c0-12.44-2.74-21.88-8.23-28.32-5.33-6.35-12.67-10.67-20.81-12.24-8.39-1.71-17.53-1.38-27.42,1-9.9,2.36-17.29,6.82-25.58,12.73,3.21-1.93,4.8-3,8.7-3.95,4.28-1,6.82-.25,10.25.71,3.6,1.09,6.64,3.51,8.53,6.76,2.26,3.54,3.39,8.96,3.38,16.25v64.26c0,44.52,22.4,58.93,48.67,57.09h0Z"/>
    </g>
  </g>
</svg>