<svg xmlns="http://www.w3.org/2000/svg" width="658.313" height="240" viewBox="0 0 658.313 240"><path fill="#fff" d="M438.237 213.094h18.696v8.567h-18.696z"/><path d="M472.496 221.66h-15.568v-8.567h15.568a3.132 3.132 0 0 1 3.132 3.133v2.3a3.132 3.132 0 0 1-3.132 3.134" fill="#cf3339"/><path d="M422.67 213.091h15.567v8.567H422.67a3.132 3.132 0 0 1-3.133-3.133v-2.3a3.132 3.132 0 0 1 3.133-3.134" fill="#0055b8"/><path d="M211.255 100.99V66.36c0-4.544-2.425-8.744-6.361-11.016l-92.906-53.64a12.722 12.722 0 0 0-12.721 0L78.364 13.772v159.441c0 4.332 1.402 7.87 4.206 10.615 2.803 2.761 6.396 4.133 10.8 4.133H22.576c4.408 0 8.001-1.372 10.8-4.133 2.804-2.745 4.206-6.283 4.206-10.615V37.318L6.36 55.344A12.722 12.722 0 0 0 0 66.36v107.278c0 4.545 2.425 8.745 6.36 11.017l92.907 53.64a12.722 12.722 0 0 0 12.721 0l92.906-53.64a12.722 12.722 0 0 0 6.36-11.017v-20.047c-15.809 17.415-38.179 30.75-65.072 33.972-1.273.184-2.062.208-2.27.21-20.93 1.47-38.785-10.013-38.785-45.525V91.046c0-5.81-.895-10.13-2.694-12.95-1.794-2.82-4.062-4.619-6.794-5.387-2.74-.769-4.762-1.368-8.17-.57-3.107.73-4.374 1.608-6.937 3.145 6.612-4.703 12.498-8.258 20.385-10.141 7.883-1.88 15.17-2.137 21.854-.769 6.684 1.368 12.21 4.62 16.58 9.75 4.367 5.125 6.558 12.653 6.558 22.567v46.562c0 21.507 17.478 32.999 35.245 30.167 15.807-11.225 28.756-38.209 30.1-72.43z" fill="#ffd200"/><path d="M284.785 115.882v-15.39c0-13.17-9.724-17.839-18.05-17.839-5.958 0-10.505 2.5-13.879 7.638V60.356h-16.002v1.752l2.335.114c3.698.203 4.47.245 4.47 13.667v39.993c0 13.427-.772 13.469-4.47 13.667l-2.335.118v1.753h22.808v-1.753l-2.335-.118c-3.702-.198-4.47-.24-4.47-13.667V93.335c2.005-3.652 5.746-7.975 12.201-7.975 6.794 0 10.53 5.374 10.53 15.132v15.39c0 13.427-.768 13.469-4.467 13.667l-2.339.118v1.753h22.809v-1.753l-2.335-.118c-3.699-.198-4.471-.24-4.471-13.667zM458.383 89.51c-5.417 4.244-8.275 10.682-8.275 18.625 0 14.452 10.648 24.539 25.899 24.539 2.99 0 5.966-.393 8.854-1.174v.503c0 13.093-2.077 19.32-13.878 19.32-6.604 0-9.065-1.959-9.065-3.196 0-.874.354-1.499.768-2.216.524-.92 1.119-1.96 1.119-3.75 0-3.192-2.36-5.598-5.49-5.598-3.41 0-5.699 2.288-5.699 5.7 0 5.256 7.021 10.935 18.367 10.935 15.313 0 23.078-7.135 23.078-21.195V99.445c0-13.426.764-13.469 4.463-13.667l2.34-.118v-1.753H476.53c-7.093 0-13.545 1.99-18.147 5.603zm26.478 39.993c-3.513.95-5.928 1.305-8.854 1.305-10.112 0-15.238-7.63-15.238-22.673 0-10.311 4.1-22.357 15.656-22.357h8.436v43.725zm-37.286-10.236v.008c.008-.004.012-.008.016-.008h-.016zM320.02 132.783c10.776 0 17.556-4.813 19.617-13.916l.055-.25-1.96-.421-.058.24c-1.828 7.727-7.064 11.637-15.564 11.637-10.462 0-15.55-7.554-15.55-23.087v-1.841h33.187v-.258c0-14.338-7.562-22.234-21.297-22.234-10.851 0-22.445 6.608-22.445 25.169 0 6.574 2.165 12.696 6.092 17.23 4.379 5.055 10.581 7.731 17.923 7.731zm-1.57-48.264c9.71 0 10.923 10.683 10.948 18.86h-22.834c.114-9.828 1.681-18.86 11.886-18.86zm119.39 31.36V99.338c0-11.527-10.327-16.686-20.561-16.686-9.86 0-16.484 3.93-16.484 9.783 0 3.23 2.39 5.489 5.801 5.489 3.083 0 5.494-2.415 5.494-5.49 0-1.895-.735-3.107-1.322-4.078-.371-.616-.671-1.102-.671-1.575 0-1.482 2.52-2.259 7.287-2.259 7.364 0 11.261 3.783 11.261 10.944v12.595c-4.079-1.73-7.457-2.381-12.308-2.381-12.882 0-19.414 4.454-19.414 13.237 0 8.296 6.836 13.658 17.42 13.658 6.326 0 11.076-2.537 14.509-7.747v6.59h15.795v-1.752l-2.34-.114c-3.698-.198-4.466-.245-4.466-13.671zm-9.195 6.119c-2.293 4.632-7 7.866-11.472 7.866-6.637 0-10.007-3.505-10.007-10.425 0-7.887 3.619-11.885 10.737-11.885 4.29 0 7.41.962 10.742 2.423v12.02zm229.668-16.853v-.258c0-14.338-7.566-22.234-21.296-22.234-10.852 0-22.45 6.608-22.45 25.169 0 6.574 2.166 12.696 6.097 17.23 4.378 5.055 10.576 7.731 17.923 7.731 10.771 0 17.556-4.813 19.616-13.916l.056-.25-1.96-.421-.059.24c-1.828 7.727-7.063 11.637-15.563 11.637-10.463 0-15.55-7.554-15.55-23.087v-1.841h33.186zm-21.296-20.626c9.71 0 10.922 10.683 10.948 18.86H625.13c.114-9.828 1.68-18.86 11.886-18.86zm-255.645 34.678l-8.905-13.465 5.86-8.335c5.895-8.165 9.382-11.205 13.33-11.623l1.17-.127v-1.74H376.09v1.749l1.706.122c.979.055 1.646.443 1.993 1.161.911 1.9-.482 5.886-3.547 10.163l-4.915 7.021-5.658-8.587c-3.204-4.801-4.29-7.398-3.643-8.686.333-.654 1.186-1.005 2.609-1.072l2.124-.118v-1.752h-22.703v1.73l.954.136c3.812.515 5.89 2.453 11.126 10.357l8.596 12.94-6.287 8.758c-6.114 8.474-9.33 11.324-13.224 11.72l-1.165.131v1.74h16.737v-1.748l-1.596-.122c-1.102-.08-1.846-.532-2.217-1.33-.908-1.968.452-5.84 3.55-10.096l5.337-7.342 5.97 9.01c2.847 4.26 4.016 7.402 3.307 8.829-.274.561-.866.874-1.748.929l-2.124.118v1.752h22.703v-1.74l-1.165-.13c-3.754-.427-6.532-2.943-11.438-10.353zm223.97-3.315v-15.39c0-5.713-1.98-10.378-5.716-13.49-3.345-2.778-7.9-4.248-13.174-4.248-8.144 0-12.231 4.24-14.613 7.774v-6.62h-15.79v1.751l2.334.119c3.699.198 4.471.24 4.471 13.667v16.437c0 13.427-.772 13.469-4.47 13.667l-2.336.118v1.753h22.809v-1.753l-2.335-.118c-3.699-.198-4.471-.24-4.471-13.667V93.335c2.926-5.223 7.202-7.87 12.725-7.87 7.33 0 11.366 5.337 11.366 15.027v15.39c0 13.427-.768 13.469-4.467 13.667l-2.335.118v1.753h22.805v-1.753l-2.331-.118c-3.703-.198-4.471-.24-4.471-13.667zm-76.886-33.23c-15.702 0-23.914 12.556-23.914 24.957 0 6.671 2.229 12.882 6.278 17.497 4.408 5.02 10.509 7.676 17.636 7.676 15.766 0 24.016-12.612 24.016-25.063 0-12.456-8.25-25.068-24.016-25.068zm0 48.26c-9.044 0-13.253-7.373-13.253-23.193 0-16.045 4.087-23.197 13.253-23.197 9.04 0 13.25 7.406 13.25 23.298 0 15.968-4.088 23.091-13.25 23.091zm-155.07 40.469c-3.476 0-6.274 2.204-6.274 6.16v2.94c0 3.928 2.826 5.822 6.33 5.822 2.204 0 4.324-.792 5.54-2.855l-1.95-1.159c-.764 1.018-1.95 1.838-3.448 1.838-2.261 0-3.815-1.329-3.815-3.476v-1.244h9.438v-2.43c0-3.731-2.684-5.596-5.821-5.596zm3.278 6.246h-6.895v-.48c0-2.233 1.526-3.618 3.532-3.618 2.063 0 3.363 1.328 3.363 3.42v.678zm-18.396-6.274c-1.441 0-3.278.706-4.323 2.402h-.057v-2.091h-2.459v19.754h2.544v-7.46h.084c.65 1.384 2.233 2.345 3.957 2.345 2.94 0 5.596-1.781 5.596-5.624v-4.07c0-3.335-2.261-5.256-5.342-5.256zm2.742 9.495c0 2.318-1.752 3.279-3.392 3.279-1.978 0-3.645-1.385-3.645-3.618v-3.137c0-2.515 1.893-3.815 3.589-3.815 2.063 0 3.448 1.272 3.448 3.109v4.182zm16.898-16.165h-2.94l-2.6 4.663h2.035l3.505-4.663zm7.855 9.665h-.057v-2.684h-2.487v14.271h2.571v-7.63c.029-2.94 2.064-4.522 4.72-4.522.424 0 .848 0 1.3.085v-2.374a6.318 6.318 0 0 0-1.074-.085c-1.809 0-3.928.933-4.973 2.94zm-146.403 2.43h8.987v-2.43h-8.987v-6.132h10.513v-2.459h-13.282v20.178h13.367v-2.458H239.36v-6.698zm19.837-5.397c-3.475 0-6.132 2.204-6.132 6.076v3.052c0 3.73 2.685 5.794 6.217 5.794 3.222 0 5.765-1.865 5.765-5.172v-.254h-2.486v.31c0 1.724-1.244 2.94-3.279 2.94-2.317 0-3.56-1.414-3.56-3.561v-3.392c0-2.317 1.44-3.645 3.504-3.645 2.035 0 3.335 1.243 3.335 2.939v.424h2.486v-.34c0-3.334-2.628-5.171-5.85-5.171zm-14.552-12.124l-2.6 4.663h2.035l3.504-4.663h-2.939zm99.494 20.659c0 2.6-1.582 4.069-3.645 4.069-1.837 0-2.967-1.13-2.967-3.532v-8.79h-2.572v9.609c0 2.94 1.639 4.974 4.748 4.974 1.78 0 3.476-.848 4.465-2.543h.056v2.232h2.459v-14.271h-2.544v8.252zm-69.909-8.535c-3.193 0-6.104 2.006-6.104 5.822v3.532c0 3.646 2.713 5.568 6.19 5.568 3.221 0 6.104-2.063 6.104-5.85v-3.307c0-3.617-2.685-5.765-6.19-5.765zm3.59 9.241c0 2.402-1.442 3.505-3.505 3.505-2.26 0-3.617-1.357-3.617-3.42v-3.674c0-2.317 1.498-3.476 3.532-3.476 2.29 0 3.59 1.357 3.59 3.363v3.702zm48.97-5.708l-3.703-1.018c-2.119-.593-3.221-1.554-3.221-3.08 0-2.12 1.95-3.053 3.872-3.053 2.176 0 3.758.877 4.606 2.6l2.402-.96c-.989-2.741-3.759-3.985-6.952-3.985-3.73 0-6.641 2.148-6.641 5.624 0 3.108 1.808 4.493 4.578 5.256l3.674.99c1.695.508 2.995 1.327 2.995 3.25 0 2.175-2.062 3.306-4.521 3.306-2.572 0-4.55-1.244-5.342-3.42l-2.515.961c.961 3.25 4.07 4.89 7.744 4.89 4.352 0 7.347-2.43 7.347-5.964 0-3.334-1.95-4.776-4.323-5.397zm-39.646 7.46v-16.589h-2.572v16.533c0 1.526.396 3.787 3.335 3.787a9.88 9.88 0 0 0 2.43-.34v-1.95c-.537.057-.96.114-1.554.114-1.187 0-1.639-.678-1.639-1.555zm12.32-10.993c-3.476 0-6.274 2.204-6.274 6.16v2.94c0 3.928 2.826 5.822 6.33 5.822 2.205 0 4.325-.792 5.54-2.855l-1.95-1.159c-.763 1.018-1.95 1.838-3.448 1.838-2.26 0-3.815-1.329-3.815-3.476v-1.244h9.44v-2.43c0-3.731-2.686-5.596-5.823-5.596zm3.278 6.246h-6.895v-.48c0-2.233 1.526-3.618 3.533-3.618 2.063 0 3.362 1.328 3.362 3.42v.678zm230.354-6.246c-3.193 0-6.104 2.006-6.104 5.822v3.532c0 3.646 2.713 5.568 6.188 5.568 3.222 0 6.105-2.063 6.105-5.85v-3.307c0-3.617-2.685-5.765-6.189-5.765zm3.589 9.241c0 2.402-1.441 3.505-3.505 3.505-2.26 0-3.617-1.357-3.617-3.42v-3.674c0-2.317 1.498-3.476 3.533-3.476 2.29 0 3.589 1.357 3.589 3.363v3.702zm54.763-4.945c0-3.307-2.685-4.324-5.68-4.324-2.657 0-5.483 1.046-5.483 4.041v.395h2.318v-.48c0-1.385 1.497-1.95 3.108-1.95 1.95 0 3.193.707 3.193 2.572v1.752h-3.984c-2.572 0-5.285 1.356-5.285 4.352 0 2.657 2.063 4.211 4.833 4.211 1.78 0 3.278-.34 4.493-2.09h.056c.029.31.085 1.412.142 1.78h2.515c-.113-.481-.226-2.6-.226-3.336v-6.923zm-2.544 5.03c0 2.006-.96 3.505-3.758 3.505-1.696 0-2.996-.764-2.996-2.318 0-1.837 1.47-2.318 3.166-2.318h3.588v1.131zm10.54 1.47v-8.45h3.674v-2.063h-3.674v-4.409H596.9v4.409h-2.29v2.062h2.29v9.1c0 2.46 1.724 3.364 3.702 3.364.565 0 1.752-.085 2.6-.34v-2.204c-.679.142-1.244.226-1.978.226-1.103 0-1.781-.395-1.781-1.696zm-80.618-12.746v2.233h-2.374v2.006h2.374v12.265h2.543V173.67h2.968v-2.006h-2.968v-2.346c0-1.272.735-1.724 1.668-1.724.537 0 .876.028 1.356.113v-2.204a7.604 7.604 0 0 0-1.61-.17c-2.573 0-3.957 1.442-3.957 4.098zm27.014 4.917h-.056v-2.684h-2.487v14.271h2.571v-7.63c.029-2.94 2.063-4.522 4.72-4.522.424 0 .848 0 1.3.085v-2.374a6.317 6.317 0 0 0-1.074-.085c-1.809 0-3.928.933-4.974 2.94zm25.15-2.995c-2.035 0-3.73.96-4.748 2.6h-.028c-.65-1.498-1.921-2.6-4.041-2.6-1.865 0-3.504.848-4.494 2.515h-.056v-2.204h-2.459v14.271h2.544v-8.534c0-2.6 1.95-3.816 3.532-3.816 2.063 0 2.911 1.385 2.94 3.505v8.845h2.543v-8.506c.028-2.176 1.441-3.844 3.504-3.844 1.979 0 2.94 1.272 2.94 3.533v8.817h2.543v-9.891c0-3.024-2.007-4.691-4.72-4.691zm35.66 14.582h2.543v-14.271h-2.544v14.271zm32.75-6.02c0 2.6-1.582 4.07-3.645 4.07-1.837 0-2.967-1.13-2.967-3.532v-8.79h-2.572v9.609c0 2.94 1.639 4.974 4.748 4.974 1.78 0 3.476-.848 4.465-2.543h.056v2.232h2.459v-14.271H639.4v8.252zm12.885-8.534c-3.475 0-6.274 2.204-6.274 6.16v2.94c0 3.928 2.826 5.822 6.33 5.822 2.205 0 4.325-.792 5.54-2.855l-1.95-1.159c-.763 1.018-1.95 1.838-3.448 1.838-2.26 0-3.815-1.329-3.815-3.476v-1.244h9.439v-2.43c0-3.731-2.685-5.596-5.822-5.596zm3.279 6.246h-6.896v-.48c0-2.233 1.526-3.618 3.532-3.618 2.063 0 3.364 1.328 3.364 3.42v.678zm-32.582-3.957h-.056c-.679-1.385-2.29-2.317-3.985-2.317-2.939 0-5.595 1.752-5.595 5.595v4.07c0 3.334 2.26 5.285 5.34 5.285 1.414 0 3.364-.82 4.296-2.487h.057v7.602h2.487v-19.783h-2.544v2.035zm0 6.613c0 2.515-1.893 3.787-3.588 3.787-2.092 0-3.477-1.272-3.477-3.109v-4.182c0-2.318 1.78-3.279 3.392-3.279 2.006 0 3.673 1.385 3.673 3.618v3.165zm-16.333-11.191h2.544v-3.278h-2.544v3.278zm-120.857.113h.961l-.707 3.504h1.386l1.13-3.617v-3.448h-2.77v3.561zm-49.025 5.143h-.057v-2.684h-2.487v14.271h2.572v-7.63c.028-2.94 2.063-4.522 4.72-4.522.423 0 .847 0 1.3.085v-2.374a6.318 6.318 0 0 0-1.075-.085c-1.808 0-3.927.933-4.973 2.94zm-9.692 5.568c0 2.6-1.583 4.069-3.646 4.069-1.837 0-2.967-1.13-2.967-3.532v-8.79h-2.572v9.609c0 2.94 1.639 4.974 4.748 4.974 1.78 0 3.476-.848 4.465-2.543h.057v2.232h2.458v-14.271h-2.543v8.252zm81.296-8.563c-1.809 0-3.504.848-4.494 2.543h-.056v-2.232h-2.459v14.271h2.544v-8.28c0-2.6 1.61-4.07 3.674-4.07 1.837 0 2.939 1.13 2.939 3.533v8.817h2.571v-9.637c0-2.939-1.639-4.945-4.72-4.945zm-113.256-2.261h2.544v-3.278h-2.544v3.278zm12.97 2.289c-3.475 0-6.273 2.204-6.273 6.16v2.94c0 3.928 2.826 5.822 6.33 5.822 2.204 0 4.324-.792 5.54-2.855l-1.95-1.159c-.764 1.018-1.95 1.838-3.448 1.838-2.261 0-3.816-1.329-3.816-3.476v-1.244h9.44v-2.43c0-3.731-2.685-5.596-5.822-5.596zm3.28 6.246h-6.897v-.48c0-2.233 1.527-3.618 3.533-3.618 2.063 0 3.363 1.328 3.363 3.42v.678zm-16.25 8.308h2.544v-14.271h-2.544v14.271zm56.6-14.554c-3.476 0-6.274 2.204-6.274 6.16v2.94c0 3.928 2.826 5.822 6.33 5.822 2.205 0 4.324-.792 5.54-2.855l-1.95-1.159c-.764 1.018-1.95 1.838-3.448 1.838-2.261 0-3.815-1.329-3.815-3.476v-1.244h9.438v-2.43c0-3.731-2.684-5.596-5.821-5.596zm3.278 6.246h-6.895v-.48c0-2.233 1.526-3.618 3.532-3.618 2.063 0 3.363 1.328 3.363 3.42v.678zm38.57 8.308h2.77v-20.15h-2.77v20.15zM478.39 173.67h-.085c-.65-1.385-2.26-2.317-3.956-2.317-2.94 0-5.596 1.752-5.596 5.595v4.07c0 3.334 2.26 5.285 5.341 5.285 1.413 0 3.392-.877 4.324-2.572h.028v2.204h2.487v-20.15h-2.543v7.885zm0 6.613c0 2.515-1.893 3.787-3.589 3.787-2.092 0-3.476-1.272-3.476-3.109v-4.182c0-2.318 1.78-3.279 3.391-3.279 2.007 0 3.674 1.385 3.674 3.618v3.165zm-332.481-37.03V96.691c0-9.914-2.191-17.442-6.557-22.568-4.37-5.13-9.897-8.38-16.58-9.749-6.685-1.368-13.972-1.11-21.855.769-7.887 1.883-13.773 5.438-20.385 10.141 2.563-1.537 3.83-2.415 6.938-3.145 3.407-.798 5.43-.199 8.17.57 2.73.768 4.999 2.567 6.793 5.387 1.799 2.82 2.694 7.14 2.694 12.95v51.203c0 35.512 17.854 46.994 38.785 45.526h-.061c.245-.025.486-.043.728-.063.566-.063 1.126-.128 1.69-.197.646-.094 1.429-.208 2.326-.352 6.524-1.213 18.933-4.509 31.829-13.224.244-.165.486-.346.73-.519-17.767 2.832-35.245-8.66-35.245-30.167z" fill="#3d1152"/></svg>