<svg xmlns="http://www.w3.org/2000/svg" width="375" height="120" fill="none" viewBox="0 0 375 120"><circle cx="45.63" cy="60.519" r="6.63" fill="#141414"/><circle cx="65.519" cy="60.519" r="6.63" fill="#141414"/><circle cx="45.63" cy="80.408" r="6.63" fill="#141414" opacity=".2"/><circle cx="85.408" cy="80.408" r="6.63" fill="#141414" opacity=".2"/><circle cx="65.519" cy="80.408" r="6.63" fill="#141414"/><circle cx="85.408" cy="60.519" r="6.63" fill="#141414"/><circle cx="45.63" cy="40.63" r="6.63" fill="#141414" opacity=".2"/><circle cx="65.519" cy="40.63" r="6.63" fill="#141414" opacity=".2"/><circle cx="85.408" cy="40.63" r="6.63" fill="#141414" opacity=".2"/><path fill="#141414" d="M132.184 82.995c1.877 0 3.402-.176 5.22-.528v-6.803c-1.115.41-2.346.528-3.519.528-2.874 0-3.93-1.408-3.93-4.106V58.245h7.449V51.44h-7.449V41.353h-8.211v10.088h-5.337v6.804h5.337v14.604c0 6.451 3.402 10.146 10.44 10.146m18.63 0c4.398 0 7.331-1.466 8.797-3.754.117.997.469 2.346.939 3.168h7.39c-.411-1.408-.704-3.637-.704-5.103v-16.07c0-6.628-4.751-10.381-12.786-10.381-6.1 0-10.85 2.287-13.49 5.63l4.692 4.633c2.112-2.346 4.81-3.577 8.094-3.577 3.988 0 5.748 1.349 5.748 3.343 0 1.7-1.173 2.874-7.507 2.874-6.1 0-12.258 2.522-12.258 9.56 0 6.51 4.692 9.677 11.085 9.677m1.642-6.217c-3.167 0-4.634-1.349-4.634-3.754 0-2.111 1.76-3.519 4.692-3.519 4.693 0 5.983-.293 6.98-1.29v2.522c0 3.343-2.815 6.041-7.038 6.041m20.117-29.267h8.563v-7.683h-8.563zm.176 34.898h8.211V51.44h-8.211zm14.193 0h8.211V40.767h-8.211zm25.278.586c9.033 0 13.666-4.75 13.666-9.736 0-4.516-2.287-7.86-9.795-9.208-5.278-.939-8.563-2.111-8.563-3.93 0-1.583 1.877-2.698 5.044-2.698 2.815 0 5.161.939 6.921 2.991l5.22-4.398c-2.639-3.285-6.98-5.161-12.141-5.161-7.918 0-12.844 4.222-12.844 9.384 0 5.63 5.161 8.152 10.733 9.15 4.633.82 7.214 1.7 7.214 3.694 0 1.7-1.818 3.109-5.279 3.109-3.401 0-6.041-1.584-7.272-3.93l-6.921 3.284c1.701 4.223 7.507 7.449 14.017 7.449m32.023 0c5.865 0 10.088-2.346 13.255-7.625l-6.569-3.343c-1.231 2.464-3.226 4.165-6.686 4.165-5.22 0-8.035-4.223-8.035-9.326 0-5.102 2.991-9.208 8.035-9.208 3.167 0 5.279 1.7 6.51 4.282l6.628-3.52c-2.229-4.868-6.628-7.565-13.138-7.565-10.733 0-16.246 7.859-16.246 16.011 0 8.856 6.686 16.129 16.246 16.129m26.335 0c4.398 0 7.331-1.466 8.797-3.754.118.997.469 2.346.939 3.168h7.39C287.293 81 287 78.772 287 77.306v-16.07c0-6.628-4.751-10.381-12.786-10.381-6.1 0-10.85 2.287-13.49 5.63l4.692 4.633c2.112-2.346 4.81-3.577 8.094-3.577 3.988 0 5.748 1.349 5.748 3.343 0 1.7-1.173 2.874-7.507 2.874-6.1 0-12.258 2.522-12.258 9.56 0 6.51 4.692 9.677 11.085 9.677m1.642-6.217c-3.167 0-4.634-1.349-4.634-3.754 0-2.111 1.76-3.519 4.693-3.519 4.692 0 5.982-.293 6.979-1.29v2.522c0 3.343-2.815 6.041-7.038 6.041m19.606 5.631h8.211V40.767h-8.211zm27.917.586c6.041 0 10.909-2.405 13.607-6.686l-6.217-3.988c-1.642 2.58-3.812 3.988-7.39 3.988-4.047 0-6.979-2.229-7.742-6.569h23.343v-2.874c0-8.152-4.985-16.011-15.659-16.011-10.147 0-15.66 7.917-15.66 16.07 0 11.613 8.739 16.07 15.718 16.07m-7.448-19.707c1.29-3.93 3.988-5.747 7.566-5.747 4.047 0 6.51 2.404 7.331 5.747z"/></svg>